<?xml version="1.0" encoding="UTF-8" standalone="no"?>
<svg
   xmlns:dc="http://purl.org/dc/elements/1.1/"
   xmlns:cc="http://creativecommons.org/ns#"
   xmlns:rdf="http://www.w3.org/1999/02/22-rdf-syntax-ns#"
   xmlns:svg="http://www.w3.org/2000/svg"
   xmlns="http://www.w3.org/2000/svg"
   xmlns:sodipodi="http://sodipodi.sourceforge.net/DTD/sodipodi-0.dtd"
   xmlns:inkscape="http://www.inkscape.org/namespaces/inkscape"
   id="Capa_1"
   enable-background="new 0 0 488.471 488.471"
   height="512"
   viewBox="0 0 488.471 488.471"
   width="512"
   version="1.1"
   sodipodi:docname="editar.svg"
   inkscape:version="0.92.5 (2060ec1f9f, 2020-04-08)">
  <metadata
     id="metadata9">
    <rdf:RDF>
      <cc:Work
         rdf:about="">
        <dc:format>image/svg+xml</dc:format>
        <dc:type
           rdf:resource="http://purl.org/dc/dcmitype/StillImage" />
      </cc:Work>
    </rdf:RDF>
  </metadata>
  <defs
     id="defs7" />
  <sodipodi:namedview
     pagecolor="#ffffff"
     bordercolor="#666666"
     borderopacity="1"
     objecttolerance="10"
     gridtolerance="10"
     guidetolerance="10"
     inkscape:pageopacity="0"
     inkscape:pageshadow="2"
     inkscape:window-width="2560"
     inkscape:window-height="1017"
     id="namedview5"
     showgrid="false"
     inkscape:zoom="0.4609375"
     inkscape:cx="-119.32203"
     inkscape:cy="256"
     inkscape:window-x="-8"
     inkscape:window-y="-8"
     inkscape:window-maximized="1"
     inkscape:current-layer="Capa_1" />
  <path
     d="m483.999 111.318-106.847-106.846c-5.962-5.962-15.621-5.962-21.584 0l-351.066 351.067c-2.862 2.862-4.472 6.738-4.472 10.792l-.03 106.876c0 4.04 1.61 7.93 4.472 10.792s6.752 4.472 10.792 4.472l106.876-.03c4.054 0 7.93-1.61 10.792-4.472l351.067-351.067c5.962-5.962 5.962-15.621 0-21.584zm-368.203 346.622-85.298.03.03-85.298 251.868-251.868 85.268 85.268c-.001 0-251.868 251.868-251.868 251.868zm273.453-273.453-85.268-85.267 62.371-62.371 85.268 85.268z"
     id="path2"
     style="fill:#000000" />
</svg>
